<svg fill="none" height="565" viewBox="0 0 740 565" width="740" xmlns="http://www.w3.org/2000/svg" xmlns:xlink="http://www.w3.org/1999/xlink"><filter id="a" color-interpolation-filters="sRGB" filterUnits="userSpaceOnUse" height="564.87" width="247.798" x="394.094" y="0"><feFlood flood-opacity="0" result="BackgroundImageFix"/><feColorMatrix in="SourceAlpha" result="hardAlpha" type="matrix" values="0 0 0 0 0 0 0 0 0 0 0 0 0 0 0 0 0 0 127 0"/><feOffset dy="2"/><feGaussianBlur stdDeviation="2.5"/><feComposite in2="hardAlpha" operator="out"/><feColorMatrix type="matrix" values="0 0 0 0 0.5875 0 0 0 0 0.463555 0 0 0 0 0 0 0 0 0.24 0"/><feBlend in2="BackgroundImageFix" mode="normal" result="effect1_dropShadow_407_136"/><feColorMatrix in="SourceAlpha" result="hardAlpha" type="matrix" values="0 0 0 0 0 0 0 0 0 0 0 0 0 0 0 0 0 0 127 0"/><feOffset dy="3"/><feGaussianBlur stdDeviation="4"/><feComposite in2="hardAlpha" operator="out"/><feColorMatrix type="matrix" values="0 0 0 0 0.7 0 0 0 0 0.510919 0 0 0 0 0 0 0 0 0.61 0"/><feBlend in2="effect1_dropShadow_407_136" mode="normal" result="effect2_dropShadow_407_136"/><feBlend in="SourceGraphic" in2="effect2_dropShadow_407_136" mode="normal" result="shape"/></filter><mask id="b" fill="#fff"><path d="m693.306 308.431c-.175-.817-.454-1.586-.775-2.354-1.302-2.734-2.697-5.409-4.558-7.841-.527-.574-1.065-1.119-1.685-1.605-.517-.36-1.044-.681-1.623-.944-.103-.039-.207-.058-.31-.088-.062 0-.134 0-.197.01-.506.097-.982.243-1.468.408-.434.146-.889.098-1.312-.048-.817 3.414-1.645 6.828-2.503 10.233-1.096 4.319-2.161 8.638-3.495 12.908-1.334 4.28-2.885 8.502-4.446 12.714-.724 1.974-1.489 3.949-2.213 5.924-.745 2.062-1.438 4.153-2.244 6.186-1.489 3.745-3.195 7.393-4.684 11.138-.217.545-.414 1.099-.62 1.644 2.057-2.802 4.218-5.535 6.544-8.161 1.861-2.111 3.732-4.231 5.552-6.381 1.758-2.247 3.453-4.504 5.076-6.828 1.593-2.286 3.092-4.621 4.705-6.887 1.602-2.257 3.453-4.338 4.983-6.644 1.572-2.344 2.978-4.814 4.281-7.305.423-1.002.806-1.994 1.023-3.054.083-1.002.073-2.014-.031-3.025zm-8.782-54.291c.145-1.459.145-2.898-.01-4.358-.238-1.293-.6-2.538-1.086-3.764-.444-.856-.961-1.644-1.529-2.432-1.096-1.255-2.285-2.393-3.608-3.434-1.426-.944-2.915-1.752-4.486-2.452-.497-.175-.993-.321-1.51-.428-.134 0-.279 0-.413 0-.393.097-.776.204-1.148.33-2.264 1.022-4.404 2.237-6.544 3.473-2.274 1.313-4.538 2.655-6.792 3.987-2.45 1.44-4.89 2.899-7.34 4.338-2.316 1.333-4.725 2.5-6.979 3.949-.341.282-.682.574-1.003.895-.093.136-.175.282-.258.418-.558 1.537-.879 3.181-1.231 4.757-.424 1.838-.827 3.677-1.21 5.506-.713 3.385-1.282 6.78-1.913 10.175-.703 3.696-1.406 7.392-2.223 11.069-.714 3.259-1.448 6.489-2.027 9.767-.683 6.254-.952 12.538-1.129 18.822 1.83.399 3.608 1.022 5.345 1.684 1.023.389 1.84.817 2.419 1.751.548.875.692 1.955.403 2.938-.28.953-.952 1.77-1.851 2.276-.868.476-2.15.719-3.122.379-1.933-.671-3.877-1.226-5.903-1.557-.93-.088-1.84-.117-2.77-.059-.3.059-.6.137-.9.224-.248.127-.486.253-.723.399-.042.029-.073.068-.114.107-1.003 1.342-1.861 2.772-2.719 4.202-.859 1.41-1.686 2.84-2.513 4.26-1.654 2.85-3.329 5.691-5.19 8.424-1.934 2.86-4.125 5.554-6.452 8.142-2.264 2.499-4.518 4.999-6.72 7.548-1.633 2.062-3.236 4.124-4.694 6.293-1.675 2.5-3.256 5.068-4.549 7.762-.32.759-.6 1.518-.868 2.286.506.321 1.023.623 1.509.973 1.705 1.216 3.37 2.452 5.013 3.746.683.525 1.365 1.05 2.016 1.605.765.642 1.478 1.371 2.274 1.975.434.398.734.875.889 1.42.248.836.114 1.751-.341 2.49-.455.73-1.199 1.265-2.058 1.488-.299.039-.609.078-.909.117-.621 0-1.199-.146-1.737-.448-1.158-.457-2.088-1.362-2.987-2.179-.693-.613-1.375-1.226-2.078-1.829-1.365-1.177-2.771-2.296-4.187-3.405-1.798-1.235-3.67-2.325-5.685-3.191-.951-.34-1.913-.613-2.916-.798-1.292-.107-2.563-.068-3.856.068-1.55.233-3.049.544-4.517 1.06-.889.379-1.747.788-2.574 1.264-.797.477-1.748.506-2.585.224-3.805 2.85-7.454 5.855-11.166 8.802-2.036 1.615-4.094 3.171-6.027 4.893-2.057 1.838-4.135 3.638-6.327 5.32-4.394 3.375-8.87 6.614-13.45 9.756-4.115 2.83-8.147 5.758-12.189 8.676-2.968 2.218-5.811 4.494-8.509 6.993-2.523 2.315-5.004 4.669-7.547 6.965-2.606 2.344-5.211 4.698-8.033 6.828-3.216 2.422-6.493 4.766-9.77 7.12-1.127.826-2.223 1.692-3.329 2.529 1.84-.321 3.68-.691 5.5-1.167 2.315-.613 4.58-1.333 6.885-1.955 2.099-.554 4.239-.972 6.358-1.459 2.347-.544 4.642-1.166 6.937-1.886 2.305-.72 4.548-1.556 6.864-2.247 2.13-.651 4.363-1.118 6.555-1.536 2.419-.447 4.838-.895 7.246-1.342 3.174-.593 6.348-1.05 9.563-1.361 2.822-.262 5.634-.544 8.446-.875 2.192-.36 4.383-.739 6.565-1.196 2.419-.515 4.848-1.021 7.288-1.439 4.549-.768 9.128-1.303 13.605-2.363 9.356-2.217 18.65-4.687 27.902-7.225 1.933-.525 3.898-1.04 5.8-1.663 2.088-.681 4.125-1.4 6.172-2.159 2.005-.827 3.99-1.673 5.955-2.587 2.284-1.05 4.559-2.179 6.637-3.569.372-.302.723-.613 1.065-.954 1.23-1.731 2.099-3.657 3.05-5.544.786-1.556 1.551-3.123 2.305-4.689.993-2.266 1.944-4.552 2.751-6.887 1.055-3.025 2.109-6.099 3.702-8.919 2.853-5.039 6.286-9.757 8.984-14.863 1.634-3.862 2.875-7.831 4.302-11.761 1.468-4.046 3.298-7.947 4.849-11.964 1.572-4.027 2.957-8.132 4.436-12.189 1.52-4.182 3.112-8.355 4.508-12.567 2.854-8.56 5.057-17.295 7.477-25.963 1.22-4.357 2.461-8.696 3.909-12.995 1.385-4.125 3.05-8.171 4.715-12.198 1.695-4.076 3.37-8.278 4.105-12.617zm-129.755 183.929c.072-.01.145-.01.227-.01.269 0 .538.039.786.117.517.048 1.034.107 1.551.146 2.822.224 5.655.438 8.487.604 2.523.155 5.055.272 7.578.331 2.357.059 4.714.117 7.06-.106 1.892-.302 3.712-.73 5.531-1.342.6-.244 1.2-.506 1.758-.817.879-.487 1.716-1.012 2.564-1.547 1.571-.973 3.101-1.994 4.631-3.035 1.427-1.069 2.781-2.178 4.084-3.394 1.148-1.06 2.264-2.14 3.412-3.2-.848.233-1.685.457-2.533.681-4.549 1.225-9.118 2.372-13.688 3.539-4.724 1.216-9.428 2.519-14.204 3.579-4.414.982-8.932 1.478-13.367 2.372-2.45.487-4.9 1.002-7.361 1.488-.207.039-.413.068-.62.107 1.365.156 2.729.331 4.104.487zm8.804-215.679c-4.671-9.913-11.018-19.028-17.851-27.725-1.282-1.547-2.584-3.065-4.093-4.407-.145-.088-.29-.166-.434-.253-.011 0-.011 0-.021 0-.062 0-.134 0-.196 0 0 .019.01.029.02.048.259.886.062 1.674-.351 2.481-.166.331-.321.661-.476 1.002-.496 1.157-.962 2.344-1.241 3.57-.052.934.021 1.838.134 2.772.248 1.566.6 3.094 1.178 4.582 1.127 2.247 2.522 4.368 3.99 6.42 1.571 2.209 3.205 4.388 4.9 6.518 2.532 3.035 5.189 5.993 8.363 8.454.806.516 1.612.983 2.48 1.382.28.087.538.155.817.214.3.019.6.019.91.01.703-.137 1.375-.35 2.057-.594.445-.194.889-.398 1.323-.622-.475-1.294-.981-2.578-1.509-3.852zm-37.985 50.356c-.486-1.187-.785-2.393-1.085-3.628-.269-1.109-.599-2.199-.94-3.278-.683-2.18-1.509-4.3-2.264-6.44-.785-2.257-1.447-4.553-2.077-6.849-.682-2.5-1.085-5.058-1.406-7.616-.486.408-.982.817-1.478 1.225-1.654 1.333-3.329 2.646-5.004 3.939-4.239 3.307-8.746 6.478-13.512 9.075-4.446 2.412-9.212 4.25-13.884 6.225-2.295.962-4.622 1.877-6.937 2.82-2.388.973-4.725 2.042-7.082 3.093-4.528 2.023-9.232 3.696-13.646 5.952-2.358 1.206-4.632 2.539-6.927 3.842-2.161 1.225-4.342 2.441-6.513 3.657-4.57 2.558-8.881 5.495-13.244 8.355-4.3 2.82-8.694 5.534-13.067 8.248-2.926 1.819-5.8 3.657-8.612 5.612-4.043 3.151-7.909 6.468-11.931 9.61-2.223 1.741-4.445 3.453-6.678 5.174.537 1.975 1.126 3.94 1.87 5.856.114.302.248.594.362.895 6.109 2.793 12.177 5.682 18.08 8.844 3.66 1.956 7.257 3.989 10.968 5.867 3.794 1.907 7.588 3.804 11.32 5.818 5.809 3.152 11.298 6.791 16.86 10.312.93.594 1.643 1.343 1.943 2.394.145.476.176.972.124 1.459 3.256-.399 6.513-.788 9.769-1.177 1.344-.184 2.688-.359 4.022-.554.992-.146 1.881-.184 2.77.059.455-.7.921-1.401 1.386-2.101.568-.856 1.22-1.673 1.83-2.5.486-.671 1.065-1.294 1.602-1.936.383-.447.734-.914 1.138-1.332 3.225-3.395 6.606-6.653 10.152-9.746 4.808-4.212 10.638-7.266 16.262-10.359 5.314-2.928 11.021-5.184 16.686-7.421 2.12-.875 4.229-1.76 6.317-2.684-.072-.555-.134-1.099-.176-1.654-.072-.943-.196-1.887-.175-2.84.01-1.119.021-2.208.124-3.317.207-2.423.569-4.815 1.024-7.208.362-1.956.92-3.891 1.438-5.808 1.003-3.774 2.078-7.509 2.947-11.303.631-2.685 1.199-5.379 1.654-8.093.176-1.595.3-3.162.373-4.767.01-.165 0-.33.01-.496-.02-.009-.051-.029-.072-.039-2.036-1.303-3.422-3.025-4.321-5.185zm-6.631-77.12c-1.147-1.732-2.305-3.473-3.576-5.137-.631-.73-1.292-1.411-2.057-2.033-.248-.166-.496-.311-.765-.457-.476-.146-.961-.244-1.468-.322-1.282-.126-2.533-.155-3.825-.048-3.629.544-7.185 1.585-10.752 2.382-4.217.943-8.384 1.935-12.643 2.664-1.881.331-3.794.525-5.644.943-2.14.487-4.239 1.041-6.327 1.683 1.87 4.805 3.596 9.65 5.633 14.397-.124-.263-.248-.525-.362-.798.186.419.372.827.558 1.246.506 1.06 1.023 2.101 1.592 3.132.486.885 1.075 1.702 1.695 2.51 1.344 1.498 2.76 2.889 4.352 4.154 1.561 1.05 3.235 1.916 4.982 2.675 1.365.458 2.74.769 4.167.993.351.039.703.068 1.054.097.631.049 1.261.01 1.882-.048 2.501-.418 4.962-1.021 7.422-1.634 1.954-.486 3.877-1.118 5.769-1.828 1.251-.525 2.481-1.07 3.742-1.586-.206-4.367.611-8.754 1.904-12.947.951-3.083 2.367-5.972 4.146-8.715-.59-.312-1.106-.749-1.479-1.323zm-119.186 151.818c3.607 7.918 7.586 15.652 12.207 23.084 5.81-1.721 11.661-3.316 17.616-4.551 3.453-.709 7.019-1.05 10.514-1.477.454-.059.92-.117 1.375-.175-2.388-1.576-4.766-3.191-7.185-4.729-3.525-2.247-7.112-4.416-10.813-6.391-3.814-2.053-7.66-4.057-11.454-6.139-3.649-2.005-7.174-4.184-10.864-6.13-1.82-.963-3.66-1.887-5.51-2.792 1.385 3.094 2.76 6.197 4.114 9.3zm-424.1033-216.161c.0311.019.0724.048.1034.068.0207.01.0207.019.0414.029-.0517-.039-.0931-.068-.1448-.097zm721.4833 187.673c-.61 1.362-1.271 2.714-1.975 4.037-.754 1.41-1.571 2.763-2.44 4.115-.734 1.138-1.571 2.227-2.357 3.336-1.695 2.432-3.267 4.922-4.839 7.412-1.613 2.519-3.318 4.941-5.159 7.305-1.933 2.471-4.011 4.795-6.141 7.11-1.892 2.062-3.691 4.163-5.469 6.294-2.75 3.618-5.439 7.285-7.941 11.069-1.23 1.877-2.471 3.745-3.711 5.613-1.872 2.83-3.815 5.661-5.284 8.705-.175.448-.331.885-.444 1.343-.031.398-.052.788-.052 1.186 0 1.781-1.572 3.259-3.464 3.259-1.374 0-2.584-.798-3.132-1.907-.207.389-.413.778-.61 1.187-1.737 4.28-3.371 8.608-5.521 12.742-1.013 1.975-2.068 3.93-3.123 5.895-.713 1.323-1.406 2.636-2.347 3.852-.506.652-1.044 1.264-1.613 1.858-.506.506-1.22.963-1.809 1.371-.899.642-1.84 1.197-2.832 1.702-2.885 1.518-5.862 2.889-8.902 4.153.29 1.314-.32 2.724-1.592 3.434-1.489.817-2.884 1.819-4.28 2.782-2.388 1.789-4.632 3.764-6.844 5.758-1.137 1.021-2.264 2.062-3.495 2.986-1.519 1.119-3.06 2.198-4.662 3.219-1.251.788-2.533 1.547-3.794 2.296-.755.438-1.489.856-2.254 1.245-.858.438-1.789.788-2.698 1.109-3.009 1.079-6.307 1.536-9.511 1.575-.062 0-.135 0-.197 0-1.747 0-3.525-.205-5.262-.332-1.912-.126-3.814-.282-5.716-.438-3.619-.302-7.247-.594-10.835-1.041.052.009.114.009.176.019-.909-.107-1.819-.224-2.719-.341-.01 0-.01 0-.01 0-.052-.009-.103-.019-.165-.019-.714-.097-1.437-.185-2.161-.273.228.03.465.059.693.078-.3-.029-.6-.068-.9-.107.021 0 .042 0 .052.01-.093-.02-.186-.029-.279-.039.072.01.155.019.227.029-.072-.01-.155-.019-.237-.029-.104-.02-.218-.029-.321-.039.103.01.207.019.31.039-.113-.02-.238-.039-.362-.049-3.37-.438-6.729-.934-10.058-1.596-1.954-.379-3.866-.866-5.779-1.401-.868.087-1.737.165-2.595.262-4.548.71-9.087 1.468-13.594 2.373-4.632.933-9.046 2.489-13.564 3.792-2.253.652-4.6 1.051-6.906 1.488-2.243.428-4.476.914-6.688 1.498-2.316.612-4.621 1.264-6.989 1.75-2.202.438-4.424.759-6.657 1.07-1.293.184-2.575.418-3.867.612-.31.078-.62.117-.93.117s-.62-.039-.92-.117c-.641-.156-1.199-.496-1.644-.953-.61.476-1.21.963-1.83 1.42-1.22.904-2.481 1.789-3.649 2.743-1.127.914-2.192 1.887-3.278 2.84-2.708 2.402-5.489 4.96-8.88 6.487-2.109.953-4.332 1.479-6.637 1.838-1.779.273-3.619.486-5.428.574-1.995.097-4.001.116-5.996.116-1.147 0-2.295-.01-3.442-.01-6.575-.039-13.119-.127-19.673-.663-13.739-1.12-27.406-2.969-40.958-5.344-13.388-2.326-26.744-4.749-40.09-7.24-4.156-.769-8.301-1.567-12.446-2.307-3.815-.691-7.65-1.216-11.486-1.713-8.962-.983-17.936-1.859-26.805-3.513-3.991-.75-7.96-1.635-11.909-2.569-3.867-.915-7.743-1.596-11.672-2.171-6.605-.749-13.232-1.226-19.858-1.694-6.792-.487-13.584-1.061-20.345-1.811-13.925-1.557-27.798-3.747-41.506-6.511-6.999-1.411-14.008-2.744-21.037-3.961-6.74-1.168-13.481-2.355-20.169-3.737-6.699-1.372-13.367-2.861-19.776-5.157-6.668-2.384-13.294-4.913-19.7136-7.852-3.1219-1.43-6.2645-2.831-9.3037-4.417-3.1219-1.634-6.2334-3.288-9.3346-4.962-5.9027-3.181-11.9398-6.187-17.6666-9.66-11.6296-7.044-22.8868-14.603-34.2062-22.085-5.4788-3.619-11.0816-7.092-16.55002-10.74-5.72686-3.824-11.58812-7.462-17.33568-11.237-5.8509-3.853-11.6811-7.705-17.3976-11.723-5.4478-3.843-10.7818-7.841-16.1054-11.83-7.2671-5.448-14.3274-11.13-21.2739-16.918-1.6333-1.362-1.4677-3.93.0004-5.311 1.6025-1.508 4.0112-1.352 5.6341 0 3.4216 2.851 6.8225 5.74 10.3475 8.464 3.0908 2.383 6.1817 4.747 9.3138 7.082 5.179 3.746 10.3993 7.433 15.692 11.023 5.5304 3.736 11.216 7.267 16.88082 10.818 5.78889 3.61 11.68119 7.073 17.39768 10.78 2.9048 1.878 5.8199 3.745 8.7351 5.613 2.6567 1.683 5.3547 3.289 7.9804 5.011 5.7889 3.784 11.5364 7.637 17.3666 11.373 5.4788 3.512 10.9576 7.063 16.5501 10.419 6.0887 3.658 12.4048 6.927 18.721 10.225 5.913 3.094 11.795 6.178 17.9148 8.903 3.577 1.605 7.195 3.093 10.834 4.563 6.14 2.335 12.312 4.65 18.752 6.198 6.885 1.644 13.832 2.987 20.789 4.349 6.782 1.324 13.625 2.404 20.417 3.718 6.968 1.343 13.925 2.744 20.913 3.98 7.898 1.402 15.848 2.54 23.808 3.601 5.861.682 11.733 1.305 17.615 1.831 6.172.555 12.344.925 18.526 1.392 6.254.477 12.529 1.013 18.69 2.132 2.947.535 5.893 1.09 8.829 1.625 3.163.574 6.337 1.071 9.521 1.567 6.812.818 13.646 1.431 20.469 2.19 6.946.779 13.8 2.074 20.675 3.28 3.256.574 6.533 1.11 9.779 1.771 3.35.672 6.699 1.392 10.069 2.015 6.885 1.284 13.78 2.579 20.655 3.941 7.66 1.509 15.3 3.134 23.022 4.331 7.805 1.197 15.62 2.472 23.456 3.552 4.683.536 9.377.867 14.101.994 4.817.126 9.625.175 14.421-.291 1.892-.272 3.743-.622 5.552-1.235.693-.331 1.333-.691 1.995-1.099 2.047-1.595 3.898-3.404 5.748-5.194 2.151-2.062 4.477-3.92 6.803-5.807 2.368-1.897 4.694-3.832 7.061-5.709 2.554-2.024 5.18-3.949 7.806-5.885 2.76-2.033 5.531-4.085 8.25-6.186 2.378-1.858 4.611-3.891 6.844-5.914 4.818-4.377 9.408-9.017 14.526-13.102 3.536-2.83 7.381-5.32 11.083-7.946 3.546-2.529 7.123-5 10.669-7.529 3.494-2.577 6.958-5.194 10.225-8.024 1.633-1.41 3.194-2.879 4.848-4.251 1.748-1.459 3.629-2.781 5.397-4.221 3.691-3.005 7.454-5.904 11.372-8.657 3.36-2.363 7-4.367 10.411-6.682.776-.642 1.458-1.332 2.13-2.071.682-.915 1.261-1.849 1.789-2.86 1.065-2.743 1.778-5.506 2.244-8.375.176-1.907.258-3.746.093-5.652-.382-1.985-.92-3.95-1.705-5.837-.806-1.926-1.633-3.833-2.46-5.759-1.54-3.57-2.791-7.179-3.493-10.982-.372-2.053-.589-4.125-.558-6.207.031-2.159.372-4.367.796-6.488.424-2.169.931-4.319 1.459-6.469.816-3.424 1.509-6.877 2.037-10.34.321-3.2.569-6.401.6-9.62.021-3.142-.216-6.275-.516-9.407-.589-6.158-1.188-12.315-1.932-18.463-.733-4.951-1.632-9.854-3.131-14.66-.713-2.296-1.447-4.601-2.212-6.887-.113.049-.227.117-.341.165-1.002.428-2.016.798-3.07 1.051-.693.165-1.406.243-2.119.243-1.044 0-2.089-.166-3.06-.468-1.293-.418-2.512-1.06-3.67-1.731-.765-.448-1.478-.993-2.181-1.499-.858-.612-1.665-1.264-2.45-1.936-1.354-1.167-2.657-2.364-3.928-3.599-2.616-2.539-4.921-5.351-7.215-8.152-2.14-2.617-4.29-5.244-5.892-8.201-1.003-1.868-1.52-3.891-1.799-5.944-.331.642-.661 1.294-.982 1.946-.507 1.245-.931 2.499-1.303 3.803-.424 1.449-.672 2.947-.92 4.436-.29 2.363-.435 4.698-.228 7.081.361 2.014.857 4.008 1.292 6.002.568 2.656.93 5.351 1.291 8.035.579 4.271.961 8.561 1.488 12.831.682 4.086 1.705 8.123 2.831 12.102.569 1.974 1.116 3.949 1.602 5.933.414 1.664.724 3.366 1.23 5.01.114.049.227.107.331.166 2.129.671 4.321 1.158 6.482 1.693 2.46.613 4.879 1.216 7.029 2.539 2.14 1.314 3.308 3.619 2.605 6.002-.683 2.325-2.926 3.843-5.449 3.901-3.039.077-5.934-.701-8.838-1.402-1.344-.321-2.678-.632-4.011-.983.051 1.255.072 2.51.03 3.746-.155 3.92-.528 7.83-.921 11.731-.414 3.978-.993 7.928-1.469 11.897-.248 2.023-.382 4.046-.496 6.07-.104 1.945-.032 3.871.061 5.817.031.661.135 1.332.238 1.994-.021-.175-.041-.341-.072-.516.144.817.289 1.625.444 2.442.33 1.887.92 3.726 1.653 5.506 1.075 2.208 2.398 4.251 3.835 6.265.455.632.931 1.245 1.416 1.858.755.982 1.468 1.994 2.223 2.967 1.013 1.303.827 3.366-.001 4.689-.434.7-1.033 1.254-1.767 1.663-.797.438-1.582.593-2.399.593-.455 0-.92-.049-1.406-.127-2.005-.33-3.67-1.634-4.91-3.113-.889-1.06-1.757-2.13-2.595-3.239-1.953-2.588-3.411-5.467-4.641-8.405-.165-.389-.299-.788-.434-1.187-4.724 2.042-9.49 3.978-14.122 6.215-2.801 1.352-5.427 2.966-8.053 4.61-2.523 1.585-5.035 3.2-7.516 4.853-1.23.924-2.419 1.848-3.588 2.841-1.24 1.05-2.419 2.169-3.566 3.326-2.389 2.412-4.725 4.864-7 7.383-.93 1.186-1.83 2.373-2.698 3.609-.951 1.332-1.82 2.733-2.699 4.124-1.737 2.772-3.308 5.603-4.756 8.511-.486 1.177-.972 2.354-1.396 3.541-.599 1.731-1.199 3.453-1.778 5.184-.507 1.547-1.024 3.074-1.551 4.611-.765 2.16-1.593 4.553-3.371 6.177-.806.739-1.871 1.138-2.957 1.138-.703 0-1.416-.175-2.057-.526-1.581-.875-2.439-2.733-1.902-4.406.362-1.168.559-2.393.859-3.57.269-1.09.579-2.17.889-3.249.651-2.257 1.324-4.504 2.047-6.741.838-2.588 1.841-5.117 2.999-7.578-2.171.272-4.332.535-6.503.797-5.758.759-11.506 1.77-17.223 2.781-3.266.564-6.471 1.264-9.686 2.061-2.967.73-5.852 1.809-8.695 2.879-1.53.623-3.039 1.264-4.549 1.926-1.054.476-2.088.778-3.173.778-.486 0-.993-.068-1.51-.195-1.53-.399-2.853-1.352-3.638-2.636-.827-1.314-1.055-2.928-.61-4.417.083-.292.197-.583.331-.846-3.721-5.924-7.132-12.024-10.233-18.259-3.215-6.47-6.171-13.065-9.178-19.631-.362-.798-.714-1.586-1.075-2.384-1.623-.739-3.246-1.479-4.869-2.208-.951-.428-1.52-1.294-1.706-2.238-2.636 2.218-5.221 4.504-7.816 6.76-3.825 3.327-7.588 6.712-11.424 10.009-4.88 4.202-9.915 8.229-14.98 12.226-.797.642-1.613 1.051-2.688 1.051-1.014 0-1.985-.38-2.698-1.051-1.365-1.284-1.582-3.804 0-5.058 4.601-3.638 9.232-7.266 13.595-11.147 4.011-3.541 7.93-7.169 11.848-10.807 3.815-3.56 7.62-7.139 11.548-10.602 3.722-3.278 7.589-6.41 11.373-9.61 3.877-3.268 7.516-6.769 11.403-10.028 4.249-3.57 8.943-6.633 13.554-9.775 4.332-2.947 8.612-5.962 12.871-8.997 4.198-3.005 8.488-5.816 12.965-8.442 2.594-1.518 5.2-3.006 7.805-4.494 2.647-1.517 5.428-2.782 8.25-3.978 2.853-1.216 5.758-2.344 8.622-3.559 3.36-1.401 6.689-2.84 10.08-4.183-.466.185-.92.37-1.386.555 4.218-1.673 8.395-3.462 12.52-5.32 3.732-1.683 7.288-3.706 10.648-5.972 3.288-2.208 6.576-4.416 9.822-6.682 1.478-1.021 2.946-2.062 4.445-3.054 1.789-1.197 3.484-2.519 5.356-3.609.289-.175.61-.291.93-.398-.134-1.177-.269-2.374-.424-3.551-.155-.992-.33-1.975-.506-2.967-.041.029-.093.058-.134.088-1.21.758-2.585 1.303-3.908 1.838-2.998 1.225-6.12 2.246-9.315 2.927-1.778.37-3.659.681-5.489.681-.217-.001-.424-.01-.631-.01-1.819-.078-3.763-.467-5.499-1.003-1.665-.515-3.308-1.138-4.818-2.004-1.426-.817-2.78-1.693-4.104-2.636-1.137-.847-2.201-1.732-3.173-2.734-1.21-1.245-2.316-2.568-3.391-3.911-1.767-2.237-2.966-4.903-4-7.5-1.953-4.952-3.597-10-5.498-14.971-1.613.564-3.205 1.128-4.797 1.741-2.264 1.001-4.477 2.061-6.71 3.122-2.533 1.196-5.138 2.236-7.753 3.258-4.332 1.692-8.705 3.297-13.026 4.989-4.001 1.614-7.961 3.258-11.827 5.106-1.975.943-3.908 1.955-5.821 2.996-1.85 1.011-3.577 2.178-5.293 3.375-3.277 2.431-6.555 4.853-9.863 7.246.321-.224.641-.457.962-.691-2.42 1.819-4.715 3.735-7.01 5.69-2.398 2.043-4.952 3.901-7.557 5.7-4.818 3.356-10.184 5.943-15.642 8.248-2.884 1.215-5.893 2.188-8.87 3.161-3.05 1.011-6.11 2.003-9.191 2.937-6.161 1.847-12.292 3.744-18.36 5.835-5.707 1.954-11.321 4.143-17.038 6.078-5.479 1.867-11.082 3.268-16.675 4.785-2.853.768-5.676 1.614-8.518 2.411-2.688.759-5.387 1.43-8.075 2.188-2.811.788-5.613 1.595-8.456 2.276-2.905.681-5.789 1.371-8.663 2.11-3.122.807-6.275 1.41-9.429 2.042-3.339.691-6.626 1.624-9.852 2.733-1.654.583-3.287 1.245-4.941 1.828-1.985.691-4.063.953-6.152 1.148-1.55.155-3.153.019-4.703-.156-1.654-.195-3.308-.419-4.973-.643-2.202-.263-4.435-.487-6.657-.487-2.667-.01-5.314.204-7.96.457-2.347.34-4.663.787-6.968 1.332-2.626.632-5.2 1.41-7.826 2.042-2.564.603-5.179 1.079-7.795 1.459-3.029.447-6.13.865-9.211.865-.052 0-.114 0-.176 0-2.667-.02-5.303-.458-7.846-1.246-1.261-.38-2.502-.827-3.732-1.284-2.646-.983-5.293-1.976-7.918-3.007-5.19-2.053-10.379-4.125-15.558-6.198-1.499-.583-3.019-1.148-4.528-1.712-1.975-.73-4.011-1.421-5.872-2.374-2.109-1.08-4.176-2.471-5.758-4.174-1.488-1.615-2.656-3.531-3.752-5.389-1.84-3.123-3.504-6.323-5.365-9.426-1.922-3.211-4.031-6.256-6.326-9.232-1.654-1.956-3.328-3.863-5.096-5.73-1.84-1.936-3.793-3.785-5.757-5.623-4.4247-4.125-9.0144-8.104-13.5317-12.141-4.1142-3.668-8.1146-7.443-12.4356-10.896-4.5793-3.658-9.2621-7.19-14.0069-10.663-5.3547-3.736-10.7197-7.433-16.0848-11.149-5.365-3.736-10.5129-7.715-15.7229-11.645-9.7687-7.063-19.6511-13.971-29.64726-20.751-10.71977-7.268-21.24304-14.749-31.66304-22.396-5.9852-4.397-11.9085-8.892-17.7283-13.474-2.729-2.15-5.3753-4.378-8.032-6.586-1.3748-1.148-2.7497-2.306-4.1452-3.434-1.6436-1.314-3.5043-2.549-4.9101-4.086-.7753-.847-1.2714-1.742-1.2713-2.889 0-1.08.455-2.131 1.2717-2.889 1.6542-1.547 4.4971-1.605 6.1407 0 1.2922 1.265 2.7497 2.393 4.1452 3.561 1.3128 1.118 2.6463 2.218 3.9798 3.327 2.8014 2.325 5.5924 4.689 8.4765 6.926 5.8612 4.563 11.8154 8.999 17.8007 13.406 10.0064 7.268 20.1266 14.399 30.40185 21.345 10.23395 6.908 20.43685 13.844 30.42255 21.082 3.6698 2.656 7.2464 5.458 10.8748 8.192 4.8275 3.473 9.7067 6.878 14.6169 10.254 5.3857 3.706 10.6577 7.549 15.8676 11.47 4.8689 3.677 9.4896 7.588 14.0069 11.626 4.3416 3.871 8.7039 7.743 13.0349 11.625 3.308 2.967 6.544 5.983 9.717 9.077 2.925 2.85 5.613 5.914 8.208 9.027 2.811 3.366 5.24 6.946 7.556 10.624 1.984 3.151 3.855 6.381 6.119 9.387.31.341.641.662.992.973 1.882 1.187 3.897 2.101 5.975 2.967 2.378.993 4.776 1.946 7.154 2.958 4.683 2.004 9.366 4.018 14.1 5.935 1.892.73 3.784 1.45 5.696 2.141 2.667.953 5.334 1.946 8.146 2.471 2.254.166 4.476.01 6.72-.233 4.032-.583 8.012-1.419 11.961-2.431 4.29-1.118 8.56-2.188 12.984-2.771 2.575-.331 5.159-.574 7.744-.68 2.077-.098 4.155.049 6.223.185 2.026.146 4.042.37 6.068.565 1.975.194 3.908.233 5.882.117.941-.156 1.861-.36 2.771-.623 1.54-.457 3.039-1.011 4.549-1.517 2.605-.846 5.293-1.536 7.97-2.12 2.802-.622 5.635-1.069 8.447-1.623 2.708-.535 5.365-1.235 8.043-1.848 2.894-.661 5.799-1.284 8.673-2.032 2.802-.72 5.593-1.518 8.405-2.188 5.758-1.391 11.465-2.947 17.223-4.328 10.204-2.45 20.004-6.068 29.908-9.404 5.2-1.76 10.431-3.443 15.683-5.067 5.355-1.663 10.648-3.452 15.9-5.378 3.856-1.575 7.588-3.326 11.269-5.301 3.391-1.818 6.596-3.919 9.708-6.137 2.057-1.605 4.042-3.307 6.141-4.883 2.564-1.925 5.21-3.725 7.878-5.515 2.46-1.653 4.859-3.384 7.371-4.96 2.398-1.498 4.88-2.791 7.464-3.988 5.479-2.548 11.083-4.785 16.789-6.876 5.386-1.974 10.814-3.832 16.2-5.806 2.636-1.089 5.221-2.246 7.806-3.443 2.894-1.332 5.923-2.402 8.932-3.452 2.76-.973 5.562-1.916 8.374-2.733 3.039-.866 6.089-1.498 9.221-1.994 3.091-.495 6.141-1.118 9.191-1.818 2.894-.661 5.81-1.254 8.704-1.925 3.68-.846 7.33-1.848 11.155-1.741 1.519.049 3.091.254 4.559.614 1.292.311 2.439 1.021 3.483 1.77 2.43 1.742 4.135 4.106 5.779 6.499.269.379.527.768.785 1.148.621-.827 1.251-1.634 1.954-2.413.941-1.05 1.882-2.159 3.009-3.054 1.086-.856 2.212-1.731 3.484-2.334 1.375-.642 2.791-1.177 4.27-1.537 2.098-.496 4.135-.418 6.223.011.3.116.6.233.889.35.693.204 1.344.506 1.913.924.93.555 1.736 1.294 2.501 2.014 1.303 1.226 2.409 2.734 3.525 4.095 2.005 2.462 3.866 5.01 5.706 7.579 1.902 2.665 3.855 5.302 5.592 8.074 3.494 5.603 6.626 11.333 9.22 17.364 1.261 2.929 2.253 5.964 3.318 8.95 1.044 2.977 1.994 5.963 2.883 8.989.827 2.86 1.385 5.856 1.85 8.784.537 3.492 1.033 6.984 1.436 10.486.703 6.216 1.56 12.452 1.87 18.697.278 5.593.019 11.284-.942 16.819-.445 2.577-.931 5.145-1.572 7.704-.755 3.025-1.562 6.031-2.1 9.105-.258 2.276-.279 4.503-.021 6.78.372 2.208.91 4.377 1.612 6.517.775 2.403 1.737 4.748 2.688 7.092.899 2.237 1.695 4.455 2.315 6.771 1.199 4.367.826 8.968.071 13.375-.393 2.286-.972 4.523-1.82 6.702-.548 1.391-1.179 2.743-1.892 4.047-.703 1.284-1.706 2.47-2.647 3.589-.486.583-1.013 1.118-1.571 1.644.661-.01 1.313 0 1.974.058 1.84.156 3.567.652 5.241 1.294.507-1.352 1.065-2.694 1.748-3.978.455-.856.889-1.731 1.375-2.578.972-1.731 1.975-3.443 2.998-5.145 1.882-3.123 4.074-6.089 6.359-8.959 2.45-3.054 5.004-6.07 7.196-9.309 2.233-3.278 4.146-6.702 6.017-10.164 1.737-3.201 3.34-6.489 5.377-9.523.682-1.022 1.519-2.033 2.502-2.782 1.261-.953 2.594-1.576 4.114-2.062.238-.078.486-.136.734-.185.114-4.134.239-8.249.466-12.373.145-2.568.239-5.156.611-7.714.3-2.121.61-4.232 1.024-6.352.879-4.407 1.665-8.833 2.337-13.278.693-4.601 1.366-9.193 2.286-13.755.424-2.101.92-4.192 1.469-6.264.403-1.537.909-2.996 1.644-4.436.589-1.177 1.643-2.208 2.636-3.122.724-.681 1.613-1.323 2.44-1.887 1.954-1.323 4.001-2.519 6.006-3.764 1.851-1.148 3.671-2.325 5.511-3.463 3.773-2.354 7.671-4.639 11.765-6.439 1.209-.535 2.45-1.021 3.711-1.429 1.654-.535 3.525-.739 5.252-.739 4.073 0 7.567 2.51 10.534 4.884 1.612 1.294 3.07 2.763 4.445 4.28.847.925 1.612 1.936 2.356 2.929.869 1.157 1.406 2.49 1.985 3.784.61 1.381 1.003 2.84 1.271 4.309.238 1.362.382 2.753.413 4.134.042 1.547-.217 3.084-.434 4.611-.155 1.022-.362 2.043-.61 3.045-.548 2.276-1.169 4.523-1.851 6.77-.621 2.092-1.396 4.154-2.079 6.226-.713 2.111-1.344 4.241-2.006 6.371-1.106 3.619-2.006 7.286-2.875 10.953.352-.117.703-.224 1.086-.292 1.116-.194 2.212-.019 3.246.429 1.726.749 3.194 1.936 4.497 3.23 1.126 1.109 2.129 2.422 3.008 3.725.827 1.246 1.633 2.491 2.356 3.785.641 1.138 1.22 2.286 1.737 3.482.403.954.579 1.956.713 2.967.155 1.07.237 2.131.155 3.201-.176 2.363-1.065 4.581-2.048 6.721z" fill="#fff"/></mask><g filter="url(#a)"><path d="m527.8 126.5c-3.35 21.3-4.55 42.99-6.1 64.47-2.43 34.47 4.11 69 8.25 103.18 3.23 26.32 6.8 52.64 10.72 78.87 8.44 55.78 39.01 175.83 40.87 180.35" stroke="#323232" stroke-linecap="round" stroke-linejoin="round"/><path d="m519.27 117.77-2.53-8.42s-14.86-12.3301-23.71-18.0501c-13.75-7.76-28.39-14.02-43.62-18.65 0 0 3.16 21.66 10.43 33.6901 7.27 12.34 31.61 17.45 38.56 17.45" stroke="#323232" stroke-linecap="round" stroke-linejoin="round"/><path d="m528.44 117.47c.57-7.34 2.97-14.47 6.95-20.7502 0 0 37.94-32.79 51.85-40.61 3.76-.61 7.61-.61 11.38 0 0 0-3.48 24.96-9.49 34.29-4.77 6.65-10.65 12.5402-17.38 17.4502" stroke="#323232" stroke-linecap="round" stroke-linejoin="round"/><path d="m451.62 140.04c-5.25-.64-10.37-2.05-15.18-4.22-5.05-2.4-23.07-13.53-32.24-24.96-1.64-2.08-2.37-4.7-2.02-7.31.34-2.59 1.77-4.9401 3.92-6.5301 1.04-.78 2.24-1.39 3.47-1.81 8.7-2.43 17.58-4.15 26.56-5.11h12.01s-18.97-22.26-19.6-32.49c-.57-5.5-.69-11.04-.31-16.54.34-3.22 1.99-6.2 4.58-8.28 2.59-2.07 5.94-3.1 9.32-2.86 8.22.61 19.29 2.41 24.98 7.53l10.11 2.7c2.06-3.76 4.4-7.37 6.96-10.83 6.64-9.53 15.81-17.2 26.55-22.26002l.32-.30001c3.16-1.5 6.7-2.06999 10.18-1.61999 3.51.42 6.76 1.83 9.42 4.03 5.69 4.51002 12.01 10.53002 13.59 14.74002l6.32.6c3.67-3.46 7.59-6.68 11.7-9.63 3.16-1.23 6.45-2.13 9.8-2.7 2.47-.46 5.03-.12 7.27.99 2.21 1.08 4.02 2.86 5.06 5.02 2.85 6.02 6.32 14.44 6.32 18.95v9.33s7.91-3.61 14.23-6.32c3.76-1.23 7.74-1.74 11.69-1.5 2.47.15 4.78 1.2 6.42 2.95 1.68 1.74 2.53 4.03 2.44 6.37v.91c-1.24 9.68-4.11 19.13-8.54 27.97-4.43 8.7-10.05 16.79-16.75 24.0701 5.69-.12 11.41.09 17.07.6 5.31.63 10.21 2.98 13.91 6.62 1.07.93 1.86 2.1 2.3 3.43.45 1.32.54 2.74.23 4.09-1.33 8.18-5.69 15.67-12.33 21.06-11.95 6.74-25.14 11.22-38.89 13.23 0 0-14.85-2.1-20.86-3.61 1.96 3.22 2.84 6.95 2.5 10.65-.35 3.73-1.87 7.25-4.4 10.11-8.53 10.83-36.04-5.41-36.04-5.41-4.74 3.82-10.08 6.97-15.8 9.32-8.85 3.31-36.36.3-50.9-10.83-1.89-1.5-3.41-3.4-4.42-5.53-1.05-2.14-1.58-4.46-1.58-6.8z" fill="#fcf1e9"/><g stroke="#323232" stroke-linecap="round" stroke-linejoin="round"><path d="m496.82 118.68c2.53 9.02 3.17 12.03 9.49 15.64 6.32 3.91 35.09 6.92 44.57 5.72 0 0 16.44-10.83 21.18-21.36.29-5.27-.25-10.53-1.58-15.65l-15.49 8.73s-22.13 5.71-29.4 6.01c-7.27 0-28.77.91-28.77.91z"/><path d="m475.64 47.6799c-1.89 5.84-2.21 12.04-.94 18.05.94 4.51 6.63 19.56 6.63 19.56"/><path d="m546.46 31.1399s18.65 11.43 20.86 39.1"/><path d="m488.29 88.5999c-2.85-13.84-2.53-22.87 0-28.88 2.53-6.02 14.54-21.36 25.92-26.48 6.17 1.36 12.04 3.7 17.39 6.92 0 0 15.8 16.25 19.28 27.08.32 5.41.32 10.83 0 16.24"/><path d="m546.46 31.1399c.98 4.66 1.61 9.38 1.89 14.14.07 4.72-.35 9.47-1.26 14.14"/><path d="m459.52 140.04c10.75.3 32.25 0 42.36-9.03"/><path d="m546.46 140.34c3.47 1.2 6.95 2.4 10.43 3.31"/><path d="m527.49 155.98c5.06-4.33 8.88-9.84 11.06-15.94"/><path d="m495.56 48.5899c-2.94-4.79-4.68-10.14-5.06-15.65 0 0 14.23-14.44 21.81-15.64 16.13-2.41 19.29 22.56 19.29 22.56"/></g></g><path d="m281.126 164.263c-32.385-4.63-60.32-46.018-117.85-.72 19.477 4.154 39.117 36.845 76.641 33.029 23.164-2.417 37.592-13.051 45.252-21.561 3.589-3.681 1.309-10.062-4.043-10.748z" fill="#4f4f5b"/><path d="m134 168.131c33.305-7.186 58.073-4.858 73.454-2.203 15.099 2.759 52.223 15.944 71.95 5.068" fill="#4f4f5b"/><path d="m134 168.131c33.305-7.186 58.073-4.858 73.454-2.203 15.099 2.759 52.223 15.944 71.95 5.068" stroke="#ffcd07" stroke-linecap="round" stroke-width="2"/><path d="m643.33 187.221c20.808 5.18 36.218 33.95 76.67 8.245-12.521-4.024-23.115-26.466-47.582-26.466-15.41 0-25.235 5.947-31.014 10.935-2.502 2.298-1.539 6.52 1.926 7.286z" fill="#4f4f5b"/><path d="m739 194.084c-22.016 2.487-37.904-.571-47.668-3.436-9.573-2.673-32.738-13.756-46.332-8.025" fill="#4f4f5b"/><g stroke-width="2"><path d="m739 194.084c-22.016 2.487-37.904-.571-47.668-3.436-9.573-2.673-32.738-13.756-46.332-8.025" stroke="#ffcd07" stroke-linecap="round"/><path d="m693.306 308.431c-.175-.817-.454-1.586-.775-2.354-1.302-2.734-2.697-5.409-4.558-7.841-.527-.574-1.065-1.119-1.685-1.605-.517-.36-1.044-.681-1.623-.944-.103-.039-.207-.058-.31-.088-.062 0-.134 0-.197.01-.506.097-.982.243-1.468.408-.434.146-.889.098-1.312-.048-.817 3.414-1.645 6.828-2.503 10.233-1.096 4.319-2.161 8.638-3.495 12.908-1.334 4.28-2.885 8.502-4.446 12.714-.724 1.974-1.489 3.949-2.213 5.924-.745 2.062-1.438 4.153-2.244 6.186-1.489 3.745-3.195 7.393-4.684 11.138-.217.545-.414 1.099-.62 1.644 2.057-2.802 4.218-5.535 6.544-8.161 1.861-2.111 3.732-4.231 5.552-6.381 1.758-2.247 3.453-4.504 5.076-6.828 1.593-2.286 3.092-4.621 4.705-6.887 1.602-2.257 3.453-4.338 4.983-6.644 1.572-2.344 2.978-4.814 4.281-7.305.423-1.002.806-1.994 1.023-3.054.083-1.002.073-2.014-.031-3.025zm-8.782-54.291c.145-1.459.145-2.898-.01-4.358-.238-1.293-.6-2.538-1.086-3.764-.444-.856-.961-1.644-1.529-2.432-1.096-1.255-2.285-2.393-3.608-3.434-1.426-.944-2.915-1.752-4.486-2.452-.497-.175-.993-.321-1.51-.428-.134 0-.279 0-.413 0-.393.097-.776.204-1.148.33-2.264 1.022-4.404 2.237-6.544 3.473-2.274 1.313-4.538 2.655-6.792 3.987-2.45 1.44-4.89 2.899-7.34 4.338-2.316 1.333-4.725 2.5-6.979 3.949-.341.282-.682.574-1.003.895-.093.136-.175.282-.258.418-.558 1.537-.879 3.181-1.231 4.757-.424 1.838-.827 3.677-1.21 5.506-.713 3.385-1.282 6.78-1.913 10.175-.703 3.696-1.406 7.392-2.223 11.069-.714 3.259-1.448 6.489-2.027 9.767-.683 6.254-.952 12.538-1.129 18.822 1.83.399 3.608 1.022 5.345 1.684 1.023.389 1.84.817 2.419 1.751.548.875.692 1.955.403 2.938-.28.953-.952 1.77-1.851 2.276-.868.476-2.15.719-3.122.379-1.933-.671-3.877-1.226-5.903-1.557-.93-.088-1.84-.117-2.77-.059-.3.059-.6.137-.9.224-.248.127-.486.253-.723.399-.042.029-.073.068-.114.107-1.003 1.342-1.861 2.772-2.719 4.202-.859 1.41-1.686 2.84-2.513 4.26-1.654 2.85-3.329 5.691-5.19 8.424-1.934 2.86-4.125 5.554-6.452 8.142-2.264 2.499-4.518 4.999-6.72 7.548-1.633 2.062-3.236 4.124-4.694 6.293-1.675 2.5-3.256 5.068-4.549 7.762-.32.759-.6 1.518-.868 2.286.506.321 1.023.623 1.509.973 1.705 1.216 3.37 2.452 5.013 3.746.683.525 1.365 1.05 2.016 1.605.765.642 1.478 1.371 2.274 1.975.434.398.734.875.889 1.42.248.836.114 1.751-.341 2.49-.455.73-1.199 1.265-2.058 1.488-.299.039-.609.078-.909.117-.621 0-1.199-.146-1.737-.448-1.158-.457-2.088-1.362-2.987-2.179-.693-.613-1.375-1.226-2.078-1.829-1.365-1.177-2.771-2.296-4.187-3.405-1.798-1.235-3.67-2.325-5.685-3.191-.951-.34-1.913-.613-2.916-.798-1.292-.107-2.563-.068-3.856.068-1.55.233-3.049.544-4.517 1.06-.889.379-1.747.788-2.574 1.264-.797.477-1.748.506-2.585.224-3.805 2.85-7.454 5.855-11.166 8.802-2.036 1.615-4.094 3.171-6.027 4.893-2.057 1.838-4.135 3.638-6.327 5.32-4.394 3.375-8.87 6.614-13.45 9.756-4.115 2.83-8.147 5.758-12.189 8.676-2.968 2.218-5.811 4.494-8.509 6.993-2.523 2.315-5.004 4.669-7.547 6.965-2.606 2.344-5.211 4.698-8.033 6.828-3.216 2.422-6.493 4.766-9.77 7.12-1.127.826-2.223 1.692-3.329 2.529 1.84-.321 3.68-.691 5.5-1.167 2.315-.613 4.58-1.333 6.885-1.955 2.099-.554 4.239-.972 6.358-1.459 2.347-.544 4.642-1.166 6.937-1.886 2.305-.72 4.548-1.556 6.864-2.247 2.13-.651 4.363-1.118 6.555-1.536 2.419-.447 4.838-.895 7.246-1.342 3.174-.593 6.348-1.05 9.563-1.361 2.822-.262 5.634-.544 8.446-.875 2.192-.36 4.383-.739 6.565-1.196 2.419-.515 4.848-1.021 7.288-1.439 4.549-.768 9.128-1.303 13.605-2.363 9.356-2.217 18.65-4.687 27.902-7.225 1.933-.525 3.898-1.04 5.8-1.663 2.088-.681 4.125-1.4 6.172-2.159 2.005-.827 3.99-1.673 5.955-2.587 2.284-1.05 4.559-2.179 6.637-3.569.372-.302.723-.613 1.065-.954 1.23-1.731 2.099-3.657 3.05-5.544.786-1.556 1.551-3.123 2.305-4.689.993-2.266 1.944-4.552 2.751-6.887 1.055-3.025 2.109-6.099 3.702-8.919 2.853-5.039 6.286-9.757 8.984-14.863 1.634-3.862 2.875-7.831 4.302-11.761 1.468-4.046 3.298-7.947 4.849-11.964 1.572-4.027 2.957-8.132 4.436-12.189 1.52-4.182 3.112-8.355 4.508-12.567 2.854-8.56 5.057-17.295 7.477-25.963 1.22-4.357 2.461-8.696 3.909-12.995 1.385-4.125 3.05-8.171 4.715-12.198 1.695-4.076 3.37-8.278 4.105-12.617zm-129.755 183.929c.072-.01.145-.01.227-.01.269 0 .538.039.786.117.517.048 1.034.107 1.551.146 2.822.224 5.655.438 8.487.604 2.523.155 5.055.272 7.578.331 2.357.059 4.714.117 7.06-.106 1.892-.302 3.712-.73 5.531-1.342.6-.244 1.2-.506 1.758-.817.879-.487 1.716-1.012 2.564-1.547 1.571-.973 3.101-1.994 4.631-3.035 1.427-1.069 2.781-2.178 4.084-3.394 1.148-1.06 2.264-2.14 3.412-3.2-.848.233-1.685.457-2.533.681-4.549 1.225-9.118 2.372-13.688 3.539-4.724 1.216-9.428 2.519-14.204 3.579-4.414.982-8.932 1.478-13.367 2.372-2.45.487-4.9 1.002-7.361 1.488-.207.039-.413.068-.62.107 1.365.156 2.729.331 4.104.487zm8.804-215.679c-4.671-9.913-11.018-19.028-17.851-27.725-1.282-1.547-2.584-3.065-4.093-4.407-.145-.088-.29-.166-.434-.253-.011 0-.011 0-.021 0-.062 0-.134 0-.196 0 0 .019.01.029.02.048.259.886.062 1.674-.351 2.481-.166.331-.321.661-.476 1.002-.496 1.157-.962 2.344-1.241 3.57-.052.934.021 1.838.134 2.772.248 1.566.6 3.094 1.178 4.582 1.127 2.247 2.522 4.368 3.99 6.42 1.571 2.209 3.205 4.388 4.9 6.518 2.532 3.035 5.189 5.993 8.363 8.454.806.516 1.612.983 2.48 1.382.28.087.538.155.817.214.3.019.6.019.91.01.703-.137 1.375-.35 2.057-.594.445-.194.889-.398 1.323-.622-.475-1.294-.981-2.578-1.509-3.852zm-37.985 50.356c-.486-1.187-.785-2.393-1.085-3.628-.269-1.109-.599-2.199-.94-3.278-.683-2.18-1.509-4.3-2.264-6.44-.785-2.257-1.447-4.553-2.077-6.849-.682-2.5-1.085-5.058-1.406-7.616-.486.408-.982.817-1.478 1.225-1.654 1.333-3.329 2.646-5.004 3.939-4.239 3.307-8.746 6.478-13.512 9.075-4.446 2.412-9.212 4.25-13.884 6.225-2.295.962-4.622 1.877-6.937 2.82-2.388.973-4.725 2.042-7.082 3.093-4.528 2.023-9.232 3.696-13.646 5.952-2.358 1.206-4.632 2.539-6.927 3.842-2.161 1.225-4.342 2.441-6.513 3.657-4.57 2.558-8.881 5.495-13.244 8.355-4.3 2.82-8.694 5.534-13.067 8.248-2.926 1.819-5.8 3.657-8.612 5.612-4.043 3.151-7.909 6.468-11.931 9.61-2.223 1.741-4.445 3.453-6.678 5.174.537 1.975 1.126 3.94 1.87 5.856.114.302.248.594.362.895 6.109 2.793 12.177 5.682 18.08 8.844 3.66 1.956 7.257 3.989 10.968 5.867 3.794 1.907 7.588 3.804 11.32 5.818 5.809 3.152 11.298 6.791 16.86 10.312.93.594 1.643 1.343 1.943 2.394.145.476.176.972.124 1.459 3.256-.399 6.513-.788 9.769-1.177 1.344-.184 2.688-.359 4.022-.554.992-.146 1.881-.184 2.77.059.455-.7.921-1.401 1.386-2.101.568-.856 1.22-1.673 1.83-2.5.486-.671 1.065-1.294 1.602-1.936.383-.447.734-.914 1.138-1.332 3.225-3.395 6.606-6.653 10.152-9.746 4.808-4.212 10.638-7.266 16.262-10.359 5.314-2.928 11.021-5.184 16.686-7.421 2.12-.875 4.229-1.76 6.317-2.684-.072-.555-.134-1.099-.176-1.654-.072-.943-.196-1.887-.175-2.84.01-1.119.021-2.208.124-3.317.207-2.423.569-4.815 1.024-7.208.362-1.956.92-3.891 1.438-5.808 1.003-3.774 2.078-7.509 2.947-11.303.631-2.685 1.199-5.379 1.654-8.093.176-1.595.3-3.162.373-4.767.01-.165 0-.33.01-.496-.02-.009-.051-.029-.072-.039-2.036-1.303-3.422-3.025-4.321-5.185zm-6.631-77.12c-1.147-1.732-2.305-3.473-3.576-5.137-.631-.73-1.292-1.411-2.057-2.033-.248-.166-.496-.311-.765-.457-.476-.146-.961-.244-1.468-.322-1.282-.126-2.533-.155-3.825-.048-3.629.544-7.185 1.585-10.752 2.382-4.217.943-8.384 1.935-12.643 2.664-1.881.331-3.794.525-5.644.943-2.14.487-4.239 1.041-6.327 1.683 1.87 4.805 3.596 9.65 5.633 14.397-.124-.263-.248-.525-.362-.798.186.419.372.827.558 1.246.506 1.06 1.023 2.101 1.592 3.132.486.885 1.075 1.702 1.695 2.51 1.344 1.498 2.76 2.889 4.352 4.154 1.561 1.05 3.235 1.916 4.982 2.675 1.365.458 2.74.769 4.167.993.351.039.703.068 1.054.097.631.049 1.261.01 1.882-.048 2.501-.418 4.962-1.021 7.422-1.634 1.954-.486 3.877-1.118 5.769-1.828 1.251-.525 2.481-1.07 3.742-1.586-.206-4.367.611-8.754 1.904-12.947.951-3.083 2.367-5.972 4.146-8.715-.59-.312-1.106-.749-1.479-1.323zm-119.186 151.818c3.607 7.918 7.586 15.652 12.207 23.084 5.81-1.721 11.661-3.316 17.616-4.551 3.453-.709 7.019-1.05 10.514-1.477.454-.059.92-.117 1.375-.175-2.388-1.576-4.766-3.191-7.185-4.729-3.525-2.247-7.112-4.416-10.813-6.391-3.814-2.053-7.66-4.057-11.454-6.139-3.649-2.005-7.174-4.184-10.864-6.13-1.82-.963-3.66-1.887-5.51-2.792 1.385 3.094 2.76 6.197 4.114 9.3zm-424.1033-216.161c.0311.019.0724.048.1034.068.0207.01.0207.019.0414.029-.0517-.039-.0931-.068-.1448-.097zm721.4833 187.673c-.61 1.362-1.271 2.714-1.975 4.037-.754 1.41-1.571 2.763-2.44 4.115-.734 1.138-1.571 2.227-2.357 3.336-1.695 2.432-3.267 4.922-4.839 7.412-1.613 2.519-3.318 4.941-5.159 7.305-1.933 2.471-4.011 4.795-6.141 7.11-1.892 2.062-3.691 4.163-5.469 6.294-2.75 3.618-5.439 7.285-7.941 11.069-1.23 1.877-2.471 3.745-3.711 5.613-1.872 2.83-3.815 5.661-5.284 8.705-.175.448-.331.885-.444 1.343-.031.398-.052.788-.052 1.186 0 1.781-1.572 3.259-3.464 3.259-1.374 0-2.584-.798-3.132-1.907-.207.389-.413.778-.61 1.187-1.737 4.28-3.371 8.608-5.521 12.742-1.013 1.975-2.068 3.93-3.123 5.895-.713 1.323-1.406 2.636-2.347 3.852-.506.652-1.044 1.264-1.613 1.858-.506.506-1.22.963-1.809 1.371-.899.642-1.84 1.197-2.832 1.702-2.885 1.518-5.862 2.889-8.902 4.153.29 1.314-.32 2.724-1.592 3.434-1.489.817-2.884 1.819-4.28 2.782-2.388 1.789-4.632 3.764-6.844 5.758-1.137 1.021-2.264 2.062-3.495 2.986-1.519 1.119-3.06 2.198-4.662 3.219-1.251.788-2.533 1.547-3.794 2.296-.755.438-1.489.856-2.254 1.245-.858.438-1.789.788-2.698 1.109-3.009 1.079-6.307 1.536-9.511 1.575-.062 0-.135 0-.197 0-1.747 0-3.525-.205-5.262-.332-1.912-.126-3.814-.282-5.716-.438-3.619-.302-7.247-.594-10.835-1.041.052.009.114.009.176.019-.909-.107-1.819-.224-2.719-.341-.01 0-.01 0-.01 0-.052-.009-.103-.019-.165-.019-.714-.097-1.437-.185-2.161-.273.228.03.465.059.693.078-.3-.029-.6-.068-.9-.107.021 0 .042 0 .052.01-.093-.02-.186-.029-.279-.039.072.01.155.019.227.029-.072-.01-.155-.019-.237-.029-.104-.02-.218-.029-.321-.039.103.01.207.019.31.039-.113-.02-.238-.039-.362-.049-3.37-.438-6.729-.934-10.058-1.596-1.954-.379-3.866-.866-5.779-1.401-.868.087-1.737.165-2.595.262-4.548.71-9.087 1.468-13.594 2.373-4.632.933-9.046 2.489-13.564 3.792-2.253.652-4.6 1.051-6.906 1.488-2.243.428-4.476.914-6.688 1.498-2.316.612-4.621 1.264-6.989 1.75-2.202.438-4.424.759-6.657 1.07-1.293.184-2.575.418-3.867.612-.31.078-.62.117-.93.117s-.62-.039-.92-.117c-.641-.156-1.199-.496-1.644-.953-.61.476-1.21.963-1.83 1.42-1.22.904-2.481 1.789-3.649 2.743-1.127.914-2.192 1.887-3.278 2.84-2.708 2.402-5.489 4.96-8.88 6.487-2.109.953-4.332 1.479-6.637 1.838-1.779.273-3.619.486-5.428.574-1.995.097-4.001.116-5.996.116-1.147 0-2.295-.01-3.442-.01-6.575-.039-13.119-.127-19.673-.663-13.739-1.12-27.406-2.969-40.958-5.344-13.388-2.326-26.744-4.749-40.09-7.24-4.156-.769-8.301-1.567-12.446-2.307-3.815-.691-7.65-1.216-11.486-1.713-8.962-.983-17.936-1.859-26.805-3.513-3.991-.75-7.96-1.635-11.909-2.569-3.867-.915-7.743-1.596-11.672-2.171-6.605-.749-13.232-1.226-19.858-1.694-6.792-.487-13.584-1.061-20.345-1.811-13.925-1.557-27.798-3.747-41.506-6.511-6.999-1.411-14.008-2.744-21.037-3.961-6.74-1.168-13.481-2.355-20.169-3.737-6.699-1.372-13.367-2.861-19.776-5.157-6.668-2.384-13.294-4.913-19.7136-7.852-3.1219-1.43-6.2645-2.831-9.3037-4.417-3.1219-1.634-6.2334-3.288-9.3346-4.962-5.9027-3.181-11.9398-6.187-17.6666-9.66-11.6296-7.044-22.8868-14.603-34.2062-22.085-5.4788-3.619-11.0816-7.092-16.55002-10.74-5.72686-3.824-11.58812-7.462-17.33568-11.237-5.8509-3.853-11.6811-7.705-17.3976-11.723-5.4478-3.843-10.7818-7.841-16.1054-11.83-7.2671-5.448-14.3274-11.13-21.2739-16.918-1.6333-1.362-1.4677-3.93.0004-5.311 1.6025-1.508 4.0112-1.352 5.6341 0 3.4216 2.851 6.8225 5.74 10.3475 8.464 3.0908 2.383 6.1817 4.747 9.3138 7.082 5.179 3.746 10.3993 7.433 15.692 11.023 5.5304 3.736 11.216 7.267 16.88082 10.818 5.78889 3.61 11.68119 7.073 17.39768 10.78 2.9048 1.878 5.8199 3.745 8.7351 5.613 2.6567 1.683 5.3547 3.289 7.9804 5.011 5.7889 3.784 11.5364 7.637 17.3666 11.373 5.4788 3.512 10.9576 7.063 16.5501 10.419 6.0887 3.658 12.4048 6.927 18.721 10.225 5.913 3.094 11.795 6.178 17.9148 8.903 3.577 1.605 7.195 3.093 10.834 4.563 6.14 2.335 12.312 4.65 18.752 6.198 6.885 1.644 13.832 2.987 20.789 4.349 6.782 1.324 13.625 2.404 20.417 3.718 6.968 1.343 13.925 2.744 20.913 3.98 7.898 1.402 15.848 2.54 23.808 3.601 5.861.682 11.733 1.305 17.615 1.831 6.172.555 12.344.925 18.526 1.392 6.254.477 12.529 1.013 18.69 2.132 2.947.535 5.893 1.09 8.829 1.625 3.163.574 6.337 1.071 9.521 1.567 6.812.818 13.646 1.431 20.469 2.19 6.946.779 13.8 2.074 20.675 3.28 3.256.574 6.533 1.11 9.779 1.771 3.35.672 6.699 1.392 10.069 2.015 6.885 1.284 13.78 2.579 20.655 3.941 7.66 1.509 15.3 3.134 23.022 4.331 7.805 1.197 15.62 2.472 23.456 3.552 4.683.536 9.377.867 14.101.994 4.817.126 9.625.175 14.421-.291 1.892-.272 3.743-.622 5.552-1.235.693-.331 1.333-.691 1.995-1.099 2.047-1.595 3.898-3.404 5.748-5.194 2.151-2.062 4.477-3.92 6.803-5.807 2.368-1.897 4.694-3.832 7.061-5.709 2.554-2.024 5.18-3.949 7.806-5.885 2.76-2.033 5.531-4.085 8.25-6.186 2.378-1.858 4.611-3.891 6.844-5.914 4.818-4.377 9.408-9.017 14.526-13.102 3.536-2.83 7.381-5.32 11.083-7.946 3.546-2.529 7.123-5 10.669-7.529 3.494-2.577 6.958-5.194 10.225-8.024 1.633-1.41 3.194-2.879 4.848-4.251 1.748-1.459 3.629-2.781 5.397-4.221 3.691-3.005 7.454-5.904 11.372-8.657 3.36-2.363 7-4.367 10.411-6.682.776-.642 1.458-1.332 2.13-2.071.682-.915 1.261-1.849 1.789-2.86 1.065-2.743 1.778-5.506 2.244-8.375.176-1.907.258-3.746.093-5.652-.382-1.985-.92-3.95-1.705-5.837-.806-1.926-1.633-3.833-2.46-5.759-1.54-3.57-2.791-7.179-3.493-10.982-.372-2.053-.589-4.125-.558-6.207.031-2.159.372-4.367.796-6.488.424-2.169.931-4.319 1.459-6.469.816-3.424 1.509-6.877 2.037-10.34.321-3.2.569-6.401.6-9.62.021-3.142-.216-6.275-.516-9.407-.589-6.158-1.188-12.315-1.932-18.463-.733-4.951-1.632-9.854-3.131-14.66-.713-2.296-1.447-4.601-2.212-6.887-.113.049-.227.117-.341.165-1.002.428-2.016.798-3.07 1.051-.693.165-1.406.243-2.119.243-1.044 0-2.089-.166-3.06-.468-1.293-.418-2.512-1.06-3.67-1.731-.765-.448-1.478-.993-2.181-1.499-.858-.612-1.665-1.264-2.45-1.936-1.354-1.167-2.657-2.364-3.928-3.599-2.616-2.539-4.921-5.351-7.215-8.152-2.14-2.617-4.29-5.244-5.892-8.201-1.003-1.868-1.52-3.891-1.799-5.944-.331.642-.661 1.294-.982 1.946-.507 1.245-.931 2.499-1.303 3.803-.424 1.449-.672 2.947-.92 4.436-.29 2.363-.435 4.698-.228 7.081.361 2.014.857 4.008 1.292 6.002.568 2.656.93 5.351 1.291 8.035.579 4.271.961 8.561 1.488 12.831.682 4.086 1.705 8.123 2.831 12.102.569 1.974 1.116 3.949 1.602 5.933.414 1.664.724 3.366 1.23 5.01.114.049.227.107.331.166 2.129.671 4.321 1.158 6.482 1.693 2.46.613 4.879 1.216 7.029 2.539 2.14 1.314 3.308 3.619 2.605 6.002-.683 2.325-2.926 3.843-5.449 3.901-3.039.077-5.934-.701-8.838-1.402-1.344-.321-2.678-.632-4.011-.983.051 1.255.072 2.51.03 3.746-.155 3.92-.528 7.83-.921 11.731-.414 3.978-.993 7.928-1.469 11.897-.248 2.023-.382 4.046-.496 6.07-.104 1.945-.032 3.871.061 5.817.031.661.135 1.332.238 1.994-.021-.175-.041-.341-.072-.516.144.817.289 1.625.444 2.442.33 1.887.92 3.726 1.653 5.506 1.075 2.208 2.398 4.251 3.835 6.265.455.632.931 1.245 1.416 1.858.755.982 1.468 1.994 2.223 2.967 1.013 1.303.827 3.366-.001 4.689-.434.7-1.033 1.254-1.767 1.663-.797.438-1.582.593-2.399.593-.455 0-.92-.049-1.406-.127-2.005-.33-3.67-1.634-4.91-3.113-.889-1.06-1.757-2.13-2.595-3.239-1.953-2.588-3.411-5.467-4.641-8.405-.165-.389-.299-.788-.434-1.187-4.724 2.042-9.49 3.978-14.122 6.215-2.801 1.352-5.427 2.966-8.053 4.61-2.523 1.585-5.035 3.2-7.516 4.853-1.23.924-2.419 1.848-3.588 2.841-1.24 1.05-2.419 2.169-3.566 3.326-2.389 2.412-4.725 4.864-7 7.383-.93 1.186-1.83 2.373-2.698 3.609-.951 1.332-1.82 2.733-2.699 4.124-1.737 2.772-3.308 5.603-4.756 8.511-.486 1.177-.972 2.354-1.396 3.541-.599 1.731-1.199 3.453-1.778 5.184-.507 1.547-1.024 3.074-1.551 4.611-.765 2.16-1.593 4.553-3.371 6.177-.806.739-1.871 1.138-2.957 1.138-.703 0-1.416-.175-2.057-.526-1.581-.875-2.439-2.733-1.902-4.406.362-1.168.559-2.393.859-3.57.269-1.09.579-2.17.889-3.249.651-2.257 1.324-4.504 2.047-6.741.838-2.588 1.841-5.117 2.999-7.578-2.171.272-4.332.535-6.503.797-5.758.759-11.506 1.77-17.223 2.781-3.266.564-6.471 1.264-9.686 2.061-2.967.73-5.852 1.809-8.695 2.879-1.53.623-3.039 1.264-4.549 1.926-1.054.476-2.088.778-3.173.778-.486 0-.993-.068-1.51-.195-1.53-.399-2.853-1.352-3.638-2.636-.827-1.314-1.055-2.928-.61-4.417.083-.292.197-.583.331-.846-3.721-5.924-7.132-12.024-10.233-18.259-3.215-6.47-6.171-13.065-9.178-19.631-.362-.798-.714-1.586-1.075-2.384-1.623-.739-3.246-1.479-4.869-2.208-.951-.428-1.52-1.294-1.706-2.238-2.636 2.218-5.221 4.504-7.816 6.76-3.825 3.327-7.588 6.712-11.424 10.009-4.88 4.202-9.915 8.229-14.98 12.226-.797.642-1.613 1.051-2.688 1.051-1.014 0-1.985-.38-2.698-1.051-1.365-1.284-1.582-3.804 0-5.058 4.601-3.638 9.232-7.266 13.595-11.147 4.011-3.541 7.93-7.169 11.848-10.807 3.815-3.56 7.62-7.139 11.548-10.602 3.722-3.278 7.589-6.41 11.373-9.61 3.877-3.268 7.516-6.769 11.403-10.028 4.249-3.57 8.943-6.633 13.554-9.775 4.332-2.947 8.612-5.962 12.871-8.997 4.198-3.005 8.488-5.816 12.965-8.442 2.594-1.518 5.2-3.006 7.805-4.494 2.647-1.517 5.428-2.782 8.25-3.978 2.853-1.216 5.758-2.344 8.622-3.559 3.36-1.401 6.689-2.84 10.08-4.183-.466.185-.92.37-1.386.555 4.218-1.673 8.395-3.462 12.52-5.32 3.732-1.683 7.288-3.706 10.648-5.972 3.288-2.208 6.576-4.416 9.822-6.682 1.478-1.021 2.946-2.062 4.445-3.054 1.789-1.197 3.484-2.519 5.356-3.609.289-.175.61-.291.93-.398-.134-1.177-.269-2.374-.424-3.551-.155-.992-.33-1.975-.506-2.967-.041.029-.093.058-.134.088-1.21.758-2.585 1.303-3.908 1.838-2.998 1.225-6.12 2.246-9.315 2.927-1.778.37-3.659.681-5.489.681-.217-.001-.424-.01-.631-.01-1.819-.078-3.763-.467-5.499-1.003-1.665-.515-3.308-1.138-4.818-2.004-1.426-.817-2.78-1.693-4.104-2.636-1.137-.847-2.201-1.732-3.173-2.734-1.21-1.245-2.316-2.568-3.391-3.911-1.767-2.237-2.966-4.903-4-7.5-1.953-4.952-3.597-10-5.498-14.971-1.613.564-3.205 1.128-4.797 1.741-2.264 1.001-4.477 2.061-6.71 3.122-2.533 1.196-5.138 2.236-7.753 3.258-4.332 1.692-8.705 3.297-13.026 4.989-4.001 1.614-7.961 3.258-11.827 5.106-1.975.943-3.908 1.955-5.821 2.996-1.85 1.011-3.577 2.178-5.293 3.375-3.277 2.431-6.555 4.853-9.863 7.246.321-.224.641-.457.962-.691-2.42 1.819-4.715 3.735-7.01 5.69-2.398 2.043-4.952 3.901-7.557 5.7-4.818 3.356-10.184 5.943-15.642 8.248-2.884 1.215-5.893 2.188-8.87 3.161-3.05 1.011-6.11 2.003-9.191 2.937-6.161 1.847-12.292 3.744-18.36 5.835-5.707 1.954-11.321 4.143-17.038 6.078-5.479 1.867-11.082 3.268-16.675 4.785-2.853.768-5.676 1.614-8.518 2.411-2.688.759-5.387 1.43-8.075 2.188-2.811.788-5.613 1.595-8.456 2.276-2.905.681-5.789 1.371-8.663 2.11-3.122.807-6.275 1.41-9.429 2.042-3.339.691-6.626 1.624-9.852 2.733-1.654.583-3.287 1.245-4.941 1.828-1.985.691-4.063.953-6.152 1.148-1.55.155-3.153.019-4.703-.156-1.654-.195-3.308-.419-4.973-.643-2.202-.263-4.435-.487-6.657-.487-2.667-.01-5.314.204-7.96.457-2.347.34-4.663.787-6.968 1.332-2.626.632-5.2 1.41-7.826 2.042-2.564.603-5.179 1.079-7.795 1.459-3.029.447-6.13.865-9.211.865-.052 0-.114 0-.176 0-2.667-.02-5.303-.458-7.846-1.246-1.261-.38-2.502-.827-3.732-1.284-2.646-.983-5.293-1.976-7.918-3.007-5.19-2.053-10.379-4.125-15.558-6.198-1.499-.583-3.019-1.148-4.528-1.712-1.975-.73-4.011-1.421-5.872-2.374-2.109-1.08-4.176-2.471-5.758-4.174-1.488-1.615-2.656-3.531-3.752-5.389-1.84-3.123-3.504-6.323-5.365-9.426-1.922-3.211-4.031-6.256-6.326-9.232-1.654-1.956-3.328-3.863-5.096-5.73-1.84-1.936-3.793-3.785-5.757-5.623-4.4247-4.125-9.0144-8.104-13.5317-12.141-4.1142-3.668-8.1146-7.443-12.4356-10.896-4.5793-3.658-9.2621-7.19-14.0069-10.663-5.3547-3.736-10.7197-7.433-16.0848-11.149-5.365-3.736-10.5129-7.715-15.7229-11.645-9.7687-7.063-19.6511-13.971-29.64726-20.751-10.71977-7.268-21.24304-14.749-31.66304-22.396-5.9852-4.397-11.9085-8.892-17.7283-13.474-2.729-2.15-5.3753-4.378-8.032-6.586-1.3748-1.148-2.7497-2.306-4.1452-3.434-1.6436-1.314-3.5043-2.549-4.9101-4.086-.7753-.847-1.2714-1.742-1.2713-2.889 0-1.08.455-2.131 1.2717-2.889 1.6542-1.547 4.4971-1.605 6.1407 0 1.2922 1.265 2.7497 2.393 4.1452 3.561 1.3128 1.118 2.6463 2.218 3.9798 3.327 2.8014 2.325 5.5924 4.689 8.4765 6.926 5.8612 4.563 11.8154 8.999 17.8007 13.406 10.0064 7.268 20.1266 14.399 30.40185 21.345 10.23395 6.908 20.43685 13.844 30.42255 21.082 3.6698 2.656 7.2464 5.458 10.8748 8.192 4.8275 3.473 9.7067 6.878 14.6169 10.254 5.3857 3.706 10.6577 7.549 15.8676 11.47 4.8689 3.677 9.4896 7.588 14.0069 11.626 4.3416 3.871 8.7039 7.743 13.0349 11.625 3.308 2.967 6.544 5.983 9.717 9.077 2.925 2.85 5.613 5.914 8.208 9.027 2.811 3.366 5.24 6.946 7.556 10.624 1.984 3.151 3.855 6.381 6.119 9.387.31.341.641.662.992.973 1.882 1.187 3.897 2.101 5.975 2.967 2.378.993 4.776 1.946 7.154 2.958 4.683 2.004 9.366 4.018 14.1 5.935 1.892.73 3.784 1.45 5.696 2.141 2.667.953 5.334 1.946 8.146 2.471 2.254.166 4.476.01 6.72-.233 4.032-.583 8.012-1.419 11.961-2.431 4.29-1.118 8.56-2.188 12.984-2.771 2.575-.331 5.159-.574 7.744-.68 2.077-.098 4.155.049 6.223.185 2.026.146 4.042.37 6.068.565 1.975.194 3.908.233 5.882.117.941-.156 1.861-.36 2.771-.623 1.54-.457 3.039-1.011 4.549-1.517 2.605-.846 5.293-1.536 7.97-2.12 2.802-.622 5.635-1.069 8.447-1.623 2.708-.535 5.365-1.235 8.043-1.848 2.894-.661 5.799-1.284 8.673-2.032 2.802-.72 5.593-1.518 8.405-2.188 5.758-1.391 11.465-2.947 17.223-4.328 10.204-2.45 20.004-6.068 29.908-9.404 5.2-1.76 10.431-3.443 15.683-5.067 5.355-1.663 10.648-3.452 15.9-5.378 3.856-1.575 7.588-3.326 11.269-5.301 3.391-1.818 6.596-3.919 9.708-6.137 2.057-1.605 4.042-3.307 6.141-4.883 2.564-1.925 5.21-3.725 7.878-5.515 2.46-1.653 4.859-3.384 7.371-4.96 2.398-1.498 4.88-2.791 7.464-3.988 5.479-2.548 11.083-4.785 16.789-6.876 5.386-1.974 10.814-3.832 16.2-5.806 2.636-1.089 5.221-2.246 7.806-3.443 2.894-1.332 5.923-2.402 8.932-3.452 2.76-.973 5.562-1.916 8.374-2.733 3.039-.866 6.089-1.498 9.221-1.994 3.091-.495 6.141-1.118 9.191-1.818 2.894-.661 5.81-1.254 8.704-1.925 3.68-.846 7.33-1.848 11.155-1.741 1.519.049 3.091.254 4.559.614 1.292.311 2.439 1.021 3.483 1.77 2.43 1.742 4.135 4.106 5.779 6.499.269.379.527.768.785 1.148.621-.827 1.251-1.634 1.954-2.413.941-1.05 1.882-2.159 3.009-3.054 1.086-.856 2.212-1.731 3.484-2.334 1.375-.642 2.791-1.177 4.27-1.537 2.098-.496 4.135-.418 6.223.011.3.116.6.233.889.35.693.204 1.344.506 1.913.924.93.555 1.736 1.294 2.501 2.014 1.303 1.226 2.409 2.734 3.525 4.095 2.005 2.462 3.866 5.01 5.706 7.579 1.902 2.665 3.855 5.302 5.592 8.074 3.494 5.603 6.626 11.333 9.22 17.364 1.261 2.929 2.253 5.964 3.318 8.95 1.044 2.977 1.994 5.963 2.883 8.989.827 2.86 1.385 5.856 1.85 8.784.537 3.492 1.033 6.984 1.436 10.486.703 6.216 1.56 12.452 1.87 18.697.278 5.593.019 11.284-.942 16.819-.445 2.577-.931 5.145-1.572 7.704-.755 3.025-1.562 6.031-2.1 9.105-.258 2.276-.279 4.503-.021 6.78.372 2.208.91 4.377 1.612 6.517.775 2.403 1.737 4.748 2.688 7.092.899 2.237 1.695 4.455 2.315 6.771 1.199 4.367.826 8.968.071 13.375-.393 2.286-.972 4.523-1.82 6.702-.548 1.391-1.179 2.743-1.892 4.047-.703 1.284-1.706 2.47-2.647 3.589-.486.583-1.013 1.118-1.571 1.644.661-.01 1.313 0 1.974.058 1.84.156 3.567.652 5.241 1.294.507-1.352 1.065-2.694 1.748-3.978.455-.856.889-1.731 1.375-2.578.972-1.731 1.975-3.443 2.998-5.145 1.882-3.123 4.074-6.089 6.359-8.959 2.45-3.054 5.004-6.07 7.196-9.309 2.233-3.278 4.146-6.702 6.017-10.164 1.737-3.201 3.34-6.489 5.377-9.523.682-1.022 1.519-2.033 2.502-2.782 1.261-.953 2.594-1.576 4.114-2.062.238-.078.486-.136.734-.185.114-4.134.239-8.249.466-12.373.145-2.568.239-5.156.611-7.714.3-2.121.61-4.232 1.024-6.352.879-4.407 1.665-8.833 2.337-13.278.693-4.601 1.366-9.193 2.286-13.755.424-2.101.92-4.192 1.469-6.264.403-1.537.909-2.996 1.644-4.436.589-1.177 1.643-2.208 2.636-3.122.724-.681 1.613-1.323 2.44-1.887 1.954-1.323 4.001-2.519 6.006-3.764 1.851-1.148 3.671-2.325 5.511-3.463 3.773-2.354 7.671-4.639 11.765-6.439 1.209-.535 2.45-1.021 3.711-1.429 1.654-.535 3.525-.739 5.252-.739 4.073 0 7.567 2.51 10.534 4.884 1.612 1.294 3.07 2.763 4.445 4.28.847.925 1.612 1.936 2.356 2.929.869 1.157 1.406 2.49 1.985 3.784.61 1.381 1.003 2.84 1.271 4.309.238 1.362.382 2.753.413 4.134.042 1.547-.217 3.084-.434 4.611-.155 1.022-.362 2.043-.61 3.045-.548 2.276-1.169 4.523-1.851 6.77-.621 2.092-1.396 4.154-2.079 6.226-.713 2.111-1.344 4.241-2.006 6.371-1.106 3.619-2.006 7.286-2.875 10.953.352-.117.703-.224 1.086-.292 1.116-.194 2.212-.019 3.246.429 1.726.749 3.194 1.936 4.497 3.23 1.126 1.109 2.129 2.422 3.008 3.725.827 1.246 1.633 2.491 2.356 3.785.641 1.138 1.22 2.286 1.737 3.482.403.954.579 1.956.713 2.967.155 1.07.237 2.131.155 3.201-.176 2.363-1.065 4.581-2.048 6.721z" fill="#f5f6f7" mask="url(#b)" stroke="#323232"/></g></svg>